# xmcd CD database file
# Copyright (C) 1995-1998 Ti Kan
#
# Track frame offsets:
#	150
#	13395
#	23977
#	36575
#	45562
#	58310
#	76005
#	91152
#	107382
#	123407
#	138045
#	153087
#	177642
#	197800
#
# Disc length: 2710 seconds
#
# Revision: 1
# Processed by: cddbd v1.4PL0 Copyright (c) Steve Scherf et al.
# Submitted via: CDex 1.30
#
DISCID=b40a940e
DTITLE=Hoyt Axton - Spin Of The Wheel
DYEAR=2003
DGENRE=Country
TTITLE0=Spin Of The Wheel
TTITLE1=Heart Break Hotel
TTITLE2=We Could've Been Sweethearts
TTITLE3=Young Man
TTITLE4=Mr. Winchester's Gun
TTITLE5=If You're a Cowboy
TTITLE6=American Dreams
TTITLE7=Mountain Right
TTITLE8=Cowboys On Horses With Wings
TTITLE9=I Collect Hearts
TTITLE10=We Were Buccaneers
TTITLE11=The Weight
TTITLE12=Thank You, Lord
TTITLE13=Blue Prelude
EXTD=\nYEAR: 2003  ID3G:   2
EXTT0=
EXTT1=
EXTT2=
EXTT3=
EXTT4=
EXTT5=
EXTT6=
EXTT7=
EXTT8=
EXTT9=
EXTT10=
EXTT11=
EXTT12=
EXTT13=
PLAYORDER=
